<?xml version="1.0" encoding="utf-8"?>
<!-- Generator: Adobe Illustrator 16.0.0, SVG Export Plug-In . SVG Version: 6.00 Build 0)  -->
<!DOCTYPE svg PUBLIC "-//W3C//DTD SVG 1.1//EN" "http://www.w3.org/Graphics/SVG/1.1/DTD/svg11.dtd">
<svg version="1.1" xmlns="http://www.w3.org/2000/svg" xmlns:xlink="http://www.w3.org/1999/xlink" x="0px" y="0px" width="967px"
	 height="272px" viewBox="0 0 967 272" enable-background="new 0 0 967 272" xml:space="preserve">
<g id="New_Layer">
	<g>
		<path fill-rule="evenodd" clip-rule="evenodd" d="M102.03,17.748c-1.555,1.737-1.646,3.018-1.189,15.089
			c0.274,7.773,0.915,13.718,1.463,14.267s1.006,3.018,1.006,5.396c0,2.377,0.366,4.39,0.731,4.39c1.006,0,3.292,22.771,3.11,31.55
			c-0.092,4.938-1.189,11.522-3.384,20.119c-3.384,13.443-4.39,27.983-2.195,29.355c0.549,0.366,4.755,0.549,9.236,0.457
			c10.7-0.091,11.522-0.914,11.522-11.979c0.092-4.299,0.549-9.877,1.098-12.346c1.555-7.407,2.195-31.276,0.915-37.495
			c-0.549-3.018-1.372-8.047-1.737-11.248c-0.458-3.2-1.28-6.311-1.829-6.858c-0.549-0.55-1.006-1.921-1.006-3.018
			c0-1.098-0.64-2.47-1.463-3.201c-1.006-0.823-1.28-2.012-0.823-4.298c0.366-2.104,0.183-3.567-0.731-4.665
			c-0.64-0.822-2.012-6.401-2.835-12.437c-2.469-16.645-1.829-15.09-6.31-14.998C104.956,15.827,103.219,16.467,102.03,17.748z"/>
		<path fill-rule="evenodd" clip-rule="evenodd" d="M147.572,89.262c-0.274,0.731-0.366,2.469-0.183,3.933l0.274,2.561h21.491
			h21.491l0.274-2.561c0.549-4.847-0.915-5.122-22.954-5.213C151.596,87.981,147.938,88.256,147.572,89.262z"/>
		<path fill-rule="evenodd" clip-rule="evenodd" d="M152.236,102.705c-0.366,0.457-0.366,1.921-0.091,3.019
			c0.366,1.371,0,2.56-0.823,3.291c-0.731,0.641-1.372,2.287-1.372,3.749c0,1.372-0.64,3.11-1.372,3.934
			c-0.731,0.731-1.372,2.561-1.372,4.023c0,1.464-0.64,3.2-1.372,3.841c-0.823,0.731-1.372,2.743-1.372,5.121
			c0,2.195-0.366,4.024-0.915,4.024c-0.458,0-0.915,1.005-0.915,2.286c0,1.188-0.549,2.561-1.28,2.927
			c-0.732,0.365-1.372,1.555-1.646,2.56c-0.274,1.738-1.188,1.829-19.479,2.287l-19.205,0.457l-0.274,2.469
			c-0.183,1.646,0.366,2.835,1.829,3.842c1.829,1.279,7.133,1.463,45.268,1.463h43.165l3.018-2.835
			c5.03-4.664,3.201-5.122-20.942-5.305c-11.431-0.091-21.034-0.365-21.491-0.64c-1.005-0.641,0.274-8.871,1.646-10.517
			c0.731-0.732,1.28-2.378,1.28-3.658c0-1.189,0.64-3.019,1.372-3.933c0.731-1.006,1.372-3.384,1.372-5.305
			c0-1.92,0.458-3.475,0.915-3.475c0.548,0,0.915-1.372,0.915-3.018c0-4.115,3.11-7.042,7.59-7.042c1.921,0,4.115-0.366,5.03-0.823
			c0.823-0.457,2.286-1.097,3.201-1.372c0.823-0.274,1.555-0.914,1.555-1.463C176.47,101.333,152.967,101.333,152.236,102.705z"/>
		<path fill-rule="evenodd" clip-rule="evenodd" d="M162.205,123.373c-0.275,0.914-0.915,2.377-1.372,3.2
			c-0.457,0.915-0.823,2.561-0.823,3.842c0,1.188-0.64,2.651-1.463,3.292c-0.732,0.64-1.281,2.194-1.098,3.291l0.274,2.104
			l29.904,0.457l29.904,0.549l1.829-2.378c2.744-3.476,2.561-9.511-0.275-12.895l-2.194-2.561l-27.07-0.274
			C164.399,121.727,162.662,121.818,162.205,123.373z"/>
		<path fill-rule="evenodd" clip-rule="evenodd" d="M129.557,125.567c-2.104,2.378-2.744,5.762-2.012,9.785
			c0.549,2.927,0.64,3.018,4.847,2.743c4.207-0.273,4.298-0.365,4.573-3.475c0.183-1.738,0.914-3.933,1.738-4.756
			c0.731-0.822,1.188-2.469,1.005-3.658c-0.274-1.828-0.915-2.103-4.389-2.377C132.025,123.647,130.837,124.014,129.557,125.567z"/>
		<path fill-rule="evenodd" clip-rule="evenodd" d="M130.105,158.765c-0.274,0.365,0.915,1.92,2.561,3.383l3.109,2.652h19.296
			c18.198,0,19.479-0.091,21.765-1.92c5.304-4.208,4.207-4.391-21.948-4.665C141.536,158.032,130.379,158.307,130.105,158.765z"/>
		<path fill-rule="evenodd" clip-rule="evenodd" d="M147.572,171.476c-0.274,0.731-0.366,4.481-0.183,8.505l0.274,7.225h6.859h6.858
			v-8.23v-8.23l-6.675-0.274C149.767,170.287,147.938,170.561,147.572,171.476z"/>
		<path fill-rule="evenodd" clip-rule="evenodd" d="M115.93,192.692c-1.006,1.005-0.915,8.504,0.091,9.054
			c0.458,0.274,1.28-0.092,1.921-0.823c0.64-0.823,2.652-1.372,4.664-1.372c2.011,0,4.298-0.366,5.212-0.914
			c0.823-0.458,4.207-1.098,7.499-1.372c4.572-0.457,6.31-1.006,7.133-2.378c1.006-1.646,0.823-1.737-3.658-1.737
			c-2.652,0-8.779-0.274-13.534-0.549C120.502,192.234,116.296,192.326,115.93,192.692z"/>
		<path fill-rule="evenodd" clip-rule="evenodd" d="M151.322,192.783c-1.28,0.549-0.641,40.604,0.64,42.159
			c0.548,0.641,2.377,1.188,4.023,1.188h3.109v-21.399c0-18.655-0.183-21.491-1.463-21.948
			C156.077,192.144,152.785,192.144,151.322,192.783z"/>
		<path fill-rule="evenodd" clip-rule="evenodd" d="M173.544,192.875c-7.773,0.365-9.876,1.188-6.402,2.561
			c1.829,0.823,12.712,3.109,18.016,3.841c2.012,0.274,4.024,0.823,4.572,1.28c0.458,0.457,1.555,0.823,2.47,0.823
			c1.372,0,1.646-0.823,1.646-4.572v-4.573l-6.127,0.184C184.244,192.509,177.933,192.783,173.544,192.875z"/>
		<path fill-rule="evenodd" clip-rule="evenodd" d="M142.634,201.014c-0.731,0.823-2.835,1.28-5.853,1.28
			c-2.744,0-5.487,0.549-6.585,1.372c-0.915,0.731-3.292,1.372-5.212,1.372c-1.829,0-4.115,0.366-5.03,0.823
			c-0.823,0.457-4.39,1.279-7.956,1.92c-12.895,2.104-15.455,2.743-16.37,3.658c-0.457,0.457-2.195,0.914-3.75,0.914
			c-3.018,0-5.944,2.286-5.944,4.664c0,0.732,1.372,2.012,3.018,2.743c2.835,1.281,3.292,1.189,7.042-0.731
			c3.109-1.646,5.396-2.103,10.974-2.103c5.213,0,7.408-0.366,8.23-1.372c0.731-0.915,2.835-1.372,6.493-1.372
			c2.926,0,5.487-0.366,5.761-0.731c0.274-0.457,4.207-1.098,8.779-1.371c4.481-0.274,8.596-0.731,9.145-1.098
			c1.463-0.915,1.188-10.243-0.366-10.791C144.28,199.917,143.183,200.282,142.634,201.014z"/>
		<path fill-rule="evenodd" clip-rule="evenodd" d="M164.582,205.861v5.304l3.475,0.641c1.829,0.274,5.487,0.548,8.14,0.548
			c2.561,0,5.03,0.366,5.304,0.915c0.274,0.457,2.012,0.914,3.841,0.914c1.737,0,5.121,0.641,7.499,1.372
			c5.212,1.646,24.417,4.39,27.526,4.024c4.755-0.732,2.286-7.226-2.744-7.226c-1.372,0-3.749-0.64-5.121-1.371
			c-1.463-0.731-4.938-1.372-7.682-1.372c-2.834,0-5.578-0.457-6.218-1.098c-1.098-1.098-7.682-2.286-18.199-3.108
			c-3.201-0.275-6.127-1.098-6.767-1.829c-0.549-0.732-2.195-1.281-3.658-1.281c-1.372,0-2.835-0.457-3.109-0.914
			C165.496,199.094,164.582,200.923,164.582,205.861z"/>
		<path fill-rule="evenodd" clip-rule="evenodd" d="M77.979,226.62c-4.481,5.121-0.915,12.254,6.219,12.254
			c4.389,0,6.31-0.731,6.31-2.469c0-0.731,0.64-1.92,1.372-2.744c1.737-1.646,1.098-4.389-1.646-7.406
			C87.489,223.236,80.722,223.419,77.979,226.62z"/>
		<path fill-rule="evenodd" clip-rule="evenodd" d="M218.628,226.62c-2.56,3.2-2.377,5.486,0.458,9.236
			c1.921,2.561,2.835,3.018,6.219,3.018c4.847,0,7.864-2.926,7.864-7.864c0-4.481-2.744-6.677-8.414-6.768
			C221.19,224.242,220.184,224.608,218.628,226.62z"/>
		<path fill-rule="evenodd" clip-rule="evenodd" d="M144.28,243.447c-2.195,2.469-2.103,8.139,0.091,10.699
			c1.372,1.646,2.744,2.104,5.762,2.104c5.395-0.091,7.316-2.743,6.95-9.419l-0.274-4.756l-5.487-0.274
			C146.749,241.618,145.561,241.892,144.28,243.447z"/>
	</g>
	<text transform="matrix(1 0 0 1 304.8086 110.6641)"><tspan x="0" y="0" font-family="'MinionPro-Regular'" font-size="105" letter-spacing="22">ALIBABA</tspan><tspan x="97.125" y="120" font-family="'MinionPro-Regular'" font-size="105" letter-spacing="12">CHAIR</tspan></text>
</g>
<g id="MasterLayer_1">
</g>
</svg>
